<svg xmlns="http://www.w3.org/2000/svg" viewBox="0 0 48 48">
  <defs>
    <linearGradient id="cr-light" x1="0" y1="0" x2="0" y2="1">
      <stop offset="0%" stop-color="#6EA6FF"/>
      <stop offset="100%" stop-color="#4A8BE0"/>
    </linearGradient>
    <linearGradient id="cr-mid" x1="0" y1="0" x2="0" y2="1">
      <stop offset="0%" stop-color="#4A8BE0"/>
      <stop offset="100%" stop-color="#2D6BC4"/>
    </linearGradient>
    <linearGradient id="cr-dark" x1="0" y1="0" x2="0" y2="1">
      <stop offset="0%" stop-color="#2D6BC4"/>
      <stop offset="100%" stop-color="#1A56A8"/>
    </linearGradient>
  </defs>
  <!-- Light blue section (top) -->
  <path d="M24 2C12.9 2 3.6 9.6 1.2 19.8l13.2-1.2A11 11 0 0 1 24 13h19.8A22 22 0 0 0 24 2z" fill="url(#cr-light)"/>
  <!-- Medium blue section (bottom-left) -->
  <path d="M1.2 19.8A22 22 0 0 0 8.8 43.4l7.3-11.7A11 11 0 0 1 13 24c0-.7.1-1.4.2-2L1.2 19.8z" fill="url(#cr-mid)"/>
  <!-- Dark blue section (bottom-right) -->
  <path d="M8.8 43.4A22 22 0 0 0 24 46a22 22 0 0 0 20.8-15l-9.2-3a11 11 0 0 1-11.2 3.7L8.8 43.4z" fill="url(#cr-dark)"/>
  <!-- Outer ring connection pieces -->
  <path d="M43.8 13H24a11 11 0 0 0-9.6 5.6l-7.1-11.7A22 22 0 0 1 24 2a22 22 0 0 1 19.8 11z" fill="url(#cr-light)" opacity="0.9"/>
  <path d="M16.1 31.7l-7.3 11.7A22 22 0 0 1 2 24c0-1.5.1-2.9.3-4.2l12 2A11 11 0 0 0 16.1 31.7z" fill="url(#cr-mid)" opacity="0.9"/>
  <path d="M35.6 24c0 2.8-1 5.3-2.8 7.2l9.4 2.8A22 22 0 0 0 46 24c0-4-1.1-7.8-3-11H35c.4 1.7.6 3.4.6 5.2v5.8z" fill="url(#cr-dark)" opacity="0.9"/>
  <!-- White ring separator -->
  <circle cx="24" cy="24" r="11" fill="none" stroke="white" stroke-width="1" opacity="0.3"/>
  <!-- Blue center circle -->
  <circle cx="24" cy="24" r="8" fill="#5B9CF4"/>
  <!-- Center highlight -->
  <circle cx="22" cy="22" r="4" fill="white" opacity="0.15"/>
</svg>
