<svg xmlns="http://www.w3.org/2000/svg" viewBox="0 0 48 48">
  <defs>
    <clipPath id="chrome-center-clip">
      <path d="M0 0h48v48H0z"/>
    </clipPath>
  </defs>
  <!-- Red section (top-right) -->
  <path d="M24 4C31.2 4 37.4 7.6 41 13H24c-1.2 0-2.3.2-3.4.5L13.3 1.8C16.4 5.2 20 4 24 4z" fill="#DB4437"/>
  <path d="M41 13H24a11 11 0 0 0-9.6 5.6L7.1 6.9A22 22 0 0 1 24 2a22 22 0 0 1 19.8 12.4L41 13z" fill="#DB4437"/>
  <!-- Green section (bottom-right) -->
  <path d="M35.6 24a11 11 0 0 1-4 8.4l-7.2 12.5A22 22 0 0 0 46 24c0-3.8-1-7.4-2.6-10.6L35.6 24z" fill="#0F9D58"/>
  <!-- Yellow section (left) -->
  <path d="M14.4 18.6A11 11 0 0 0 13 24c0 3 1.2 5.7 3.1 7.7L8.8 43.4A22 22 0 0 1 2 24c0-6.6 2.9-12.5 7.5-16.5l4.9 11.1z" fill="#F4B400"/>
  <!-- Outer ring segments -->
  <path d="M24 2C12.9 2 3.6 9.6 1.2 19.8l13.2-1.2A11 11 0 0 1 24 13h19.8A22 22 0 0 0 24 2z" fill="#DB4437"/>
  <path d="M1.2 19.8A22 22 0 0 0 8.8 43.4l7.3-11.7A11 11 0 0 1 13 24c0-.7.1-1.4.2-2L1.2 19.8z" fill="#F4B400"/>
  <path d="M8.8 43.4A22 22 0 0 0 24 46a22 22 0 0 0 20.8-15l-9.2-3a11 11 0 0 1-11.2 3.7L8.8 43.4z" fill="#0F9D58"/>
  <!-- Blue center circle -->
  <circle cx="24" cy="24" r="8" fill="#4285F4"/>
  <!-- White inner ring for definition -->
  <circle cx="24" cy="24" r="11" fill="none" stroke="white" stroke-width="0.5" opacity="0.3"/>
</svg>
