<svg xmlns="http://www.w3.org/2000/svg" viewBox="0 0 48 48">
  <defs>
    <linearGradient id="edge-grad1" x1="0" y1="0" x2="1" y2="1">
      <stop offset="0%" stop-color="#0C59A4"/>
      <stop offset="100%" stop-color="#114A8B"/>
    </linearGradient>
    <linearGradient id="edge-grad2" x1="0" y1="0" x2="0.8" y2="1">
      <stop offset="0%" stop-color="#1B9DE2"/>
      <stop offset="50%" stop-color="#36B37E"/>
      <stop offset="100%" stop-color="#50E6A4"/>
    </linearGradient>
    <radialGradient id="edge-rad" cx="0.3" cy="0.4" r="0.8">
      <stop offset="0%" stop-color="#35C759" stop-opacity="0.8"/>
      <stop offset="100%" stop-color="#35C759" stop-opacity="0"/>
    </radialGradient>
  </defs>
  <!-- Bottom wave / swoosh -->
  <path d="M4 28c0-8 4-15 12-19 8-4 16-3 20 0-3-5-10-8-18-7C10 3 4 11 4 20v8z" fill="url(#edge-grad1)"/>
  <!-- Main swoosh shape -->
  <path d="M4 28c0 10 8 18 20 18 6 0 11-2 14.5-5.5 1.5-1.5 2.5-3.5 3-5.5-2 3-5 5-9 5.5-6 .8-11-2-14-7-2-3-2.5-6.5-1-10 1-2.5 3-4.5 6-5.5 4-1.5 8-.5 11 2C38 13 33 6 24 4 14 2 4 11 4 28z" fill="url(#edge-grad2)"/>
  <!-- Upper curve accent -->
  <path d="M36 9c-3-5-8-7-14-7C14 2 6 8 4 17c1-6 5-11 12-14 5-2 10-1 14 1l6 5z" fill="url(#edge-grad1)" opacity="0.6"/>
  <!-- Inner highlight -->
  <path d="M18 23.5c-1 3 0 6.5 2 9 3 4 8 6 13 5.5 3-.3 5.5-1.5 7.5-4-4 3-9 3.5-13.5 1.5-4-2-6.5-5.5-7-10 0-1.5.5-3 1.5-4.5 1.5-2 3.5-3 6-3.5-3 0-6 1-8 3.5-.8 1-1.2 1.5-1.5 2.5z" fill="white" opacity="0.15"/>
</svg>
